<?xml version="1.0" encoding="utf-8"?>
<!-- Generator: Adobe Illustrator 18.1.0, SVG Export Plug-In . SVG Version: 6.00 Build 0)  -->
<!DOCTYPE svg PUBLIC "-//W3C//DTD SVG 1.1//EN" "http://www.w3.org/Graphics/SVG/1.1/DTD/svg11.dtd">
<svg version="1.1" id="Layer_1" xmlns="http://www.w3.org/2000/svg" xmlns:xlink="http://www.w3.org/1999/xlink" x="0px" y="0px"
	 viewBox="0 0 249.4 227.8" enable-background="new 0 0 249.4 227.8" xml:space="preserve">
<g id="Your_Icon_2_">
	<path fill="#BC9D6D" d="M53.7,217.6c2.6,0.2,4.8-1.5,5.3-4c-0.2,2.7,1.8,5.1,4.5,5.4c2.7,0.3,5.2-1.8,5.4-4.5
		c0.3-2.9,1-10.4,1.3-13.1c0.1,0,0.1,0,0.2,0c17.7,1.5,37.8-11.8,41.7-39.8c1.7-12.1-1.4-24.2-8.8-34c-5-6.7-11.6-11.7-19.1-14.8
		c0.5-1.1,1-2.3,1.1-3.5c0.5-3.2-0.4-6.4-2.3-9c-1.9-2.6-4.8-4.3-8-4.7c-6-0.8-11.7,2.9-13.3,8.7c-0.2,0.5-0.3,1.1-0.3,1.6
		c-0.2,1.3-0.1,2.5,0.1,3.7c-1.3,0.1-2.6,0.4-3.9,0.6l-3.2-8.6c3.2-2.2,5.6-5.5,6.8-9.4c0.5-1.9,0.8-3.9,0.6-5.9l-1.4-22
		c-0.1-2.1-0.6-4-1.4-5.8l11.8-9.7c0.3,0.2,0.5,0.3,0.8,0.5c4.2,2.1,8.9,2.4,13.3,0.9l20.9-7.1c5.4-1.8,9.6-6.2,11.1-11.7
		c0,0,0-0.1,0-0.1l10.3-0.2c1.7,4.2,5,7.8,9.5,9.6l20.4,8.4c4.2,1.7,8.9,1.7,13.1,0l4.6,5.8c-1,1.5-1.7,3.1-2.2,4.8
		c-0.7,2.3-0.8,4.7-0.5,7.1l3,21.8c0.9,6.5,5.3,11.7,11.1,13.9l-0.2,7.2c-15.3,0.5-30,8.6-38.3,22.8c-2.6,4.5-4.5,9-5.7,13.3
		c-5.5,19.2,1.8,35.8,13.9,43.8c0.1,0,0.1,0.1,0.2,0.1c-1.4,2.3-5.4,8.7-7,11.2c-1.5,2.3-0.8,5.4,1.5,6.9c2.3,1.5,5.4,0.8,6.9-1.5
		l0,0c-0.2,0.3-0.3,0.6-0.4,1c-0.6,2.1,0.2,4.4,2.1,5.6c2.3,1.5,5.4,0.8,6.9-1.5c0.6-0.9,5.5-8.7,7.2-11.5c0.1,0,0.1,0,0.2,0.1
		c15.9,8,39.4,3.3,53.6-21.2c10.7-18.5,7-41.3-7.5-55.7c0.9-0.8,1.7-1.8,2.4-2.9c0.5-0.9,0.9-1.8,1.2-2.8c1.5-5.3-0.8-11-5.6-13.8
		c-5.8-3.4-13.2-1.4-16.6,4.4c-0.5,0.9-0.9,1.8-1.2,2.8c-0.1,0.2-0.1,0.5-0.1,0.7c-1.3-0.4-2.5-0.7-3.8-0.9l0.3-7.3
		c6.2-1.4,11.2-6,12.9-12.2c0.7-2.3,0.8-4.7,0.5-7.1l-3-21.8c-1.3-9.5-10.1-16.2-19.6-14.9c-1.6,0.2-3.1,0.7-4.5,1.3l-4.4-5.6
		c0.7-1,1.3-2.1,1.8-3.3c3.7-9-0.7-19.1-9.5-22.7L150,8.4c-4.3-1.8-9-1.8-13.3,0c-4.3,1.8-7.6,5.1-9.4,9.4c-0.3,0.6-0.5,1.2-0.6,1.9
		c-0.1,0.4-0.2,0.8-0.3,1.3l-9.7,0.2c0-0.1,0-0.2-0.1-0.3c-1.5-4.4-4.6-8-8.8-10c-4.2-2.1-8.9-2.4-13.3-0.9l-20.9,7.1
		c-5.4,1.8-9.6,6.2-11.1,11.7c-1,3.4-0.9,7,0.3,10.4c0.3,0.8,0.6,1.6,1,2.4l-11.3,9.3c-3.1-2-6.8-3-10.6-2.8
		c-7.3,0.5-13.6,5.5-15.6,12.6c-0.5,1.9-0.8,3.9-0.6,5.9l1.4,22c0.6,9.4,8.6,16.5,17.9,16.2l3.1,8.5c-12.2,5.4-21.8,16-25.6,29.3
		c-0.6,2-1,4.1-1.3,6.2c-4,28.1,11.6,46.3,29.1,49.8c0.1,0,0.2,0,0.2,0.1c-0.4,3.3-1.2,12.4-1.3,13.5
		C48.9,214.9,51,217.3,53.7,217.6z M218.4,173.6c-8.4,14.5-25.1,25.1-40.5,17.3c-4.7-2.4-10.3-1.1-12.8,3c2.3-4.2,0.7-9.7-3.7-12.6
		c-14.5-9.6-13.5-29.2-5.1-43.8c9.9-17.1,32-23,49.1-13C222.5,134.4,228.4,156.4,218.4,173.6z M209.6,112.9c0.6-1,1.9-1.4,3-0.8
		c0.9,0.5,1.3,1.5,1,2.5c0,0.2-0.1,0.3-0.2,0.5c-0.6,1-1.9,1.4-3,0.8c0,0,0,0,0,0c0,0,0,0,0,0C209.4,115.2,209,113.9,209.6,112.9z
		 M196.7,63.4l3,21.8c0.1,1,0.1,2.1-0.2,3c-0.5,1.7-1.6,3.2-3,4.1l0.2-7.1c0.1-2.7-2.1-5.1-4.8-5.1c-2.3-0.1-4.3,1.5-5,3.6
		c-0.1,0.4-0.2,0.8-0.2,1.2l-0.2,5.9c-0.8-1-1.4-2.3-1.6-3.7l-3-21.8c-0.1-0.5-0.1-1-0.1-1.5l3.4,4.4c1.7,2.2,4.8,2.5,7,0.8
		c2.2-1.7,2.5-4.8,0.8-7l-4-5.1C192.9,56.9,196.2,59.6,196.7,63.4z M140.5,17.6c1.8-0.8,3.9-0.8,5.7,0l20.4,8.4c3.2,1.3,5,4.7,4.5,8
		l-2.4-3c-1.7-2.2-4.8-2.5-7-0.8c-0.9,0.7-1.4,1.6-1.7,2.5c-0.4,1.5-0.2,3.1,0.9,4.5l2.5,3.2c-0.8,0-1.7-0.2-2.4-0.5l-20.4-8.4
		c-0.4-0.2-0.9-0.4-1.2-0.7l3.7-0.1c2.7-0.1,4.9-2.3,4.9-5.1c-0.1-2.7-2.3-4.9-5.1-4.9l-5.9,0.1C137.7,19.4,138.9,18.3,140.5,17.6z
		 M76.8,26.5l20.9-7.1c1.9-0.6,3.9-0.5,5.7,0.4c0.8,0.4,1.5,1,2.2,1.6l-3.9,0.1c-2.2,0-4.1,1.6-4.7,3.6c-0.1,0.5-0.2,1-0.2,1.5
		c0.1,2.7,2.3,4.9,5.1,4.9l3.9-0.1c-0.8,1-1.9,1.7-3.2,2.1l-20.9,7.1c-0.5,0.2-1,0.3-1.5,0.3l3.6-3c2.1-1.7,2.4-4.9,0.7-7
		c-1.7-2.1-4.9-2.4-7-0.7l-5.5,4.5C71.4,31.4,73.5,27.7,76.8,26.5z M37,87.9l-1.4-22c-0.3-4,3-7.7,6.9-7.9c0.4,0,0.8,0,1.2,0
		l-3.3,2.8c-0.8,0.7-1.4,1.5-1.6,2.5c-0.4,1.5-0.1,3.2,0.9,4.5c1.7,2.1,4.9,2.4,7,0.7l3.7-3.1l1.4,21.5c0.1,0.9,0,1.7-0.3,2.5
		c-0.2,0.7-0.5,1.4-0.9,2l-1.8-4.8c-0.9-2.6-3.8-3.9-6.4-3c-1.6,0.6-2.7,1.8-3.1,3.3c-0.3,1-0.3,2,0.1,3.1l1.5,4
		C38.8,92.8,37.2,90.6,37,87.9z M71.7,108.9c-0.2-0.3-0.5-0.8-0.4-1.6c0.2-1.2,1.3-2,2.4-1.8c0.8,0.1,1.2,0.6,1.4,0.8
		c0.2,0.3,0.5,0.8,0.4,1.6c0,0.1,0,0.2-0.1,0.3c-0.3,1-1.3,1.7-2.4,1.5l0,0c0,0,0,0,0,0C72.3,109.6,71.9,109.1,71.7,108.9z
		 M31.1,150.1c2.8-19.6,21-33.3,40.6-30.6c9.5,1.3,17.9,6.3,23.7,14c5.8,7.7,8.2,17.1,6.9,26.6c-3.1,22-18,32.4-31.1,31.3
		c-5.3-0.4-9.9,2.9-10.7,7.6c0.5-4.7-3-9.2-8.2-10.3C35.3,185.4,28.7,166.8,31.1,150.1z"/>
</g>
</svg>
