<?xml version="1.0" encoding="utf-8"?>
<!-- Generator: Adobe Illustrator 18.1.0, SVG Export Plug-In . SVG Version: 6.00 Build 0)  -->
<!DOCTYPE svg PUBLIC "-//W3C//DTD SVG 1.1//EN" "http://www.w3.org/Graphics/SVG/1.1/DTD/svg11.dtd">
<svg version="1.1" id="Layer_1" xmlns="http://www.w3.org/2000/svg" xmlns:xlink="http://www.w3.org/1999/xlink" x="0px" y="0px"
	 viewBox="0 0 375.9 213.9" enable-background="new 0 0 375.9 213.9" xml:space="preserve">
<g>
	<path fill="#BC9D6D" d="M280.8,120.5C280.8,120.5,280.8,120.5,280.8,120.5c17.2-5.2,35-12.2,52.1-21.5c27.5-16,41.5,0.6,31.3,25.7
		c-8.7,23.8-54.9,67.9-95.1,78c-15.4-10.9-45.7-18.3-80.6-18.5c-34.9,0.1-65.2,7.6-80.6,18.5c-40.3-10.1-86.5-54.3-95.1-78
		C2.5,99.7,16.5,83.1,44,99.1c17.2,9.4,35,16.4,52.1,21.5c36.9,11.1,70.7,13.8,88.4,13.9l9.7,0C211.9,134.2,244.9,131.3,280.8,120.5
		z"/>
	<g id="XMLID_1_">
		<path fill="#BC9D6D" d="M231,8.9c14.4,7.2,37.7,74.7,46.8,102.4c-34.7,10.1-66.3,12.8-83.5,13l-9.7,0c-17.2,0-49.7-2.6-85.4-13
			c9.1-27.7,32.4-95.3,46.8-102.5c16.5-8.2,30.6,5.4,42,6.7h-2.2c0.9,0.1,1.8,0.1,2.8,0c0.9,0.1,1.9,0.1,2.8,0H189
			C200.4,14.3,214.5,0.7,231,8.9z M225.4,61.3c0-3-2.4-5.4-5.4-5.4c-2.8,0-5,2-5.4,4.7l-16.7-2.4l-7.4-14.9c2-0.8,3.4-2.8,3.4-5
			c0-3-2.4-5.4-5.4-5.4c-3,0-5.4,2.4-5.4,5.4c0,2.3,1.4,4.3,3.4,5l-7.4,14.9l-16.8,2.4c-0.4-2.7-2.6-4.7-5.4-4.7
			c-3,0-5.4,2.4-5.4,5.4c0,3,2.4,5.4,5.4,5.4c1.8,0,3.5-0.9,4.5-2.3L173.3,76l-3,17.4c-0.7-0.3-1.4-0.4-2.2-0.4
			c-3,0-5.4,2.4-5.4,5.4s2.4,5.4,5.4,5.4c3,0,5.4-2.4,5.4-5.4c0-1.1-0.3-2.2-0.9-3l15.8-8.3l15.8,8.3c-0.6,0.9-1,1.9-1,3.1
			c0,3,2.4,5.4,5.4,5.4c3,0,5.4-2.4,5.4-5.4c0-3-2.4-5.4-5.4-5.4c-0.7,0-1.5,0.2-2.1,0.4l-3-17.4l11.9-11.6c1,1.4,2.6,2.3,4.4,2.3
			C222.9,66.7,225.4,64.3,225.4,61.3z"/>
	</g>
</g>
</svg>
