<svg xmlns="http://www.w3.org/2000/svg" xmlns:xlink="http://www.w3.org/1999/xlink" version="1.1" x="0px" y="0px" width="100px" height="100px" viewBox="5.0 -10.0 100.0 135.0" enable-background="new 0 0 100 100" xml:space="preserve">
<g id="Captions">
	<rect x="-192" width="185" height="99"/>
	<rect y="-36" width="100" height="30"/>
	<text transform="matrix(1 0 0 1 66 -19.5)" fill="#000000" font-family="'Helvetica'" font-size="2.4">http://thenounproject.com</text>
	<text transform="matrix(1 0 0 1 7.166 -24.5)"><tspan x="0" y="0" fill="#000000" font-family="'Helvetica-Bold'" font-size="6.1578">The Noun Project</tspan><tspan x="1.12" y="4.8" fill="#000000" font-family="'Helvetica-Bold'" font-size="4">Icon Template</tspan></text>
	<text transform="matrix(1 0 0 1 -178.5 10.5)" fill="#000000" font-family="'Helvetica-Bold'" font-size="6.1578">Reminders</text>
	<line fill="#000000" stroke="#FFFFFF" stroke-miterlimit="10" x1="8" y1="-14.5" x2="18" y2="-14.5"/>
	<line fill="#000000" stroke="#FFFFFF" stroke-miterlimit="10" x1="-179" y1="16.5" x2="-162" y2="16.5"/>
	<g>
		<g>
			<g>
				<rect x="-170.802" y="31.318" fill="#000000" width="8.721" height="8.642"/>
				<path fill="#000000" d="M-164.455,42.312h4.747v-4.703h-4.747V42.312z M-159.266,42.749h-5.63V37.17h5.63V42.749      L-159.266,42.749z M-166.221,44.062h8.279v-8.203h-8.279V44.062L-166.221,44.062z M-157.5,44.5h-9.163v-9.079h9.163V44.5      L-157.5,44.5z"/>
				<polygon fill="#000000" points="-166.149,44.133 -166.292,43.991 -158.013,35.787 -157.871,35.929     "/>
			</g>
		</g>
	</g>
	<rect x="-179" y="58" fill="none" width="35" height="32.5"/>
	<text transform="matrix(1 0 0 1 -179 60.1572)"><tspan x="0" y="0" fill="#000000" font-family="'Helvetica-Bold'" font-size="3">Strokes</tspan><tspan x="0" y="5" fill="#000000" font-family="'Helvetica'" font-size="2.4">Try to keep strokes at 4px</tspan><tspan x="0" y="10" fill="#000000" font-family="'Helvetica'" font-size="2.4">Minimum stroke weight is 2px</tspan><tspan x="0" y="14.5" fill="#000000" font-family="'Helvetica'" font-size="2.4">For thicker strokes use even </tspan><tspan x="0" y="17.5" fill="#000000" font-family="'Helvetica'" font-size="2.4">numbers: 6px, 8px etc.</tspan><tspan x="0" y="22" fill="#000000" font-family="'Helvetica-Bold'" font-size="2.4">Remember to expand strokes </tspan><tspan x="0" y="25" fill="#000000" font-family="'Helvetica-Bold'" font-size="2.4">before saving as an SVG </tspan></text>
	<rect x="-136.5" y="58" fill="none" width="35" height="32.5"/>
	<text transform="matrix(1 0 0 1 -136.5 60.1572)"><tspan x="0" y="0" fill="#000000" font-family="'Helvetica-Bold'" font-size="3">Size</tspan><tspan x="0" y="5" fill="#000000" font-family="'Helvetica'" font-size="2.4">Cannot be wider or taller than </tspan><tspan x="0" y="8.5" fill="#000000" font-family="'Helvetica'" font-size="2.4">100px (artboard size)</tspan><tspan x="0" y="13.5" fill="#000000" font-family="'Helvetica'" font-size="2.4">Scale your icon to fill as much of </tspan><tspan x="0" y="16.5" fill="#000000" font-family="'Helvetica'" font-size="2.4">the artboard as possible</tspan></text>
	<rect x="-94" y="58" fill="none" width="35" height="32.5"/>
	<text transform="matrix(1 0 0 1 -94 60.1572)"><tspan x="0" y="0" fill="#000000" font-family="'Helvetica-Bold'" font-size="3">Ungroup</tspan><tspan x="0" y="5" fill="#000000" font-family="'Helvetica'" font-size="2.4">If your design has more than one </tspan><tspan x="0" y="8" fill="#000000" font-family="'Helvetica'" font-size="2.4">shape, make sure to ungroup</tspan></text>
	<rect x="-50" y="58" fill="none" width="35" height="32.5"/>
	<text transform="matrix(1 0 0 1 -50 60.1572)"><tspan x="0" y="0" fill="#000000" font-family="'Helvetica-Bold'" font-size="3">Save as</tspan><tspan x="0" y="5" fill="#000000" font-family="'Helvetica'" font-size="2.4">Save as .SVG and make sure </tspan><tspan x="0" y="8" fill="#000000" font-family="'Helvetica'" font-size="2.4">&#8220;Use Artboards&#8221; is checked</tspan></text>
	<text transform="matrix(1.0074 0 0 1 -125.542 30.5933)" fill="#000000" font-family="'Helvetica'" font-size="2.5731">100px</text>
	<text transform="matrix(1.0074 0 0 1 -41 39)" fill="#000000" font-family="'Helvetica-Bold'" font-size="5.1462">.SVG</text>
	<rect x="-126.514" y="34.815" fill="#000000" width="10.261" height="10.185"/>
	<rect x="-126.477" y="31.766" fill="#000000" width="0.522" height="2.337"/>
	<rect x="-116.812" y="31.766" fill="#000000" width="0.523" height="2.337"/>
	<rect x="-127" y="32.337" fill="#000000" width="11.233" height="0.572"/>
	<g>
		<rect x="-83.805" y="33.844" fill="#000000" width="10.305" height="10.156"/>
		<rect x="-76.809" y="28.707" fill="#000000" width="3.308" height="3.261"/>
	</g>
	<rect x="-178.5" y="22.5" fill="#000000" stroke="#FFFFFF" stroke-miterlimit="10" width="30" height="30"/>
	<rect x="-136.5" y="22.5" fill="#000000" stroke="#FFFFFF" stroke-miterlimit="10" width="30" height="30"/>
	<rect x="-93.5" y="22.5" fill="#000000" stroke="#FFFFFF" stroke-miterlimit="10" width="30" height="30"/>
	<rect x="-49.5" y="22.5" fill="#000000" stroke="#FFFFFF" stroke-miterlimit="10" width="30" height="30"/>
</g>
<g id="Your_Icon">
	<path d="M96.965,67.248c-0.191-1.016-1.125-1.701-2.13-1.612c1.079-0.21,1.787-1.251,1.583-2.333   c-0.204-1.085-1.249-1.802-2.336-1.594c-1.16,0.219-4.11,0.77-5.185,0.946c-0.01-0.023-0.02-0.052-0.025-0.081   c-1.391-7.014-8.7-13.297-19.982-11.735c-4.879,0.674-9.204,3.209-12.177,7.137c-2.02,2.668-3.229,5.766-3.601,9.005   c-0.483-0.086-0.98-0.122-1.491-0.051c-1.289,0.179-2.431,0.848-3.216,1.886c-0.785,1.037-1.119,2.318-0.94,3.605   c0.331,2.396,2.403,4.203,4.82,4.203c0.221,0,0.445-0.015,0.67-0.046c0.505-0.07,0.977-0.235,1.423-0.448   c0.202,0.489,0.425,0.966,0.666,1.432l-2.985,2.174c-1.218-0.984-2.747-1.572-4.38-1.572c-0.8,0-1.59,0.137-2.35,0.407   l-8.337,2.979c-0.779,0.278-1.483,0.689-2.102,1.2l-5.045-3.481c0.029-0.122,0.062-0.243,0.085-0.368   c0.334-1.837-0.067-3.693-1.13-5.229l-5.041-7.281c-1.305-1.885-3.455-3.01-5.749-3.01c-0.012,0-0.024,0.003-0.037,0.003   l-1.219-3.973c1.446-1.12,2.449-2.797,2.669-4.741l0.996-8.797c0.207-1.826-0.302-3.622-1.426-5.07l1.742-2.412   c0.667,0.209,1.37,0.326,2.093,0.326c0.97,0,1.915-0.199,2.809-0.592l8.108-3.562c2.423-1.066,3.94-3.35,4.151-5.818l2.822-0.701   c1.879,5.86,6.626,10.663,13.018,12.282c2.03,0.514,3.956,0.75,5.761,0.75c8.01,0,13.635-4.646,15.394-10.209   c0.009-0.029,0.021-0.055,0.034-0.078c1.065,0.292,3.96,1.138,5.098,1.472c1.062,0.312,2.173-0.295,2.483-1.355   c0.312-1.06-0.295-2.171-1.354-2.483c-0.001,0-0.008-0.002-0.009-0.002c0.141,0.03,0.282,0.061,0.422,0.061   c0.864,0,1.661-0.564,1.918-1.436c0.312-1.06-0.295-2.171-1.354-2.483c-0.433-0.127-3.974-1.168-5.24-1.513   c-0.001-0.028,0.001-0.059,0.007-0.091c1.351-7.021-3.059-15.592-14.1-18.39c-8.309-2.106-16.74,1.834-20.684,9.025   c-0.418-0.262-0.869-0.482-1.372-0.61c-0.392-0.099-0.794-0.149-1.197-0.149c-2.23,0-4.171,1.511-4.719,3.674   c-0.659,2.603,0.922,5.257,3.526,5.917c0.392,0.099,0.794,0.149,1.197,0.149c0.101,0,0.198-0.019,0.297-0.025   c0.003,0.527,0.027,1.051,0.075,1.571l-2.862,0.711c-1.215-2.234-3.55-3.659-6.126-3.659c-0.97,0-1.916,0.199-2.809,0.591   l-8.105,3.562c-3.528,1.55-5.138,5.682-3.588,9.21c0.259,0.59,0.6,1.125,0.996,1.609l-1.684,2.331   c-0.475-0.162-0.968-0.278-1.478-0.336c-3.882-0.436-7.301,2.361-7.732,6.159l-0.996,8.797c-0.21,1.855,0.314,3.682,1.478,5.143   c1.164,1.461,2.827,2.381,4.681,2.59c0.267,0.03,0.532,0.045,0.794,0.045c0.177,0,0.351-0.012,0.525-0.024l1.138,3.708   c-0.037,0.024-0.078,0.042-0.115,0.067c-1.535,1.062-2.565,2.659-2.898,4.496c-0.334,1.837,0.068,3.693,1.131,5.229l5.041,7.279   c1.305,1.885,3.455,3.011,5.75,3.011c1.425,0,2.799-0.43,3.974-1.243c0.287-0.198,0.55-0.422,0.8-0.655l4.836,3.337   c-0.445,1.435-0.423,2.967,0.09,4.405c0.991,2.775,3.636,4.64,6.583,4.64c0.8,0,1.59-0.137,2.35-0.407l8.338-2.977   c3.556-1.271,5.441-5.142,4.299-8.709l2.927-2.13c3.431,4.105,8.573,6.652,14.153,6.652c0.838,0,1.687-0.058,2.539-0.175   c11.282-1.562,16.609-9.595,16.042-16.723c-0.003-0.033-0.001-0.065,0.003-0.093c1.305-0.21,4.935-0.895,5.378-0.979   C96.456,69.38,97.17,68.333,96.965,67.248z M61.812,8.446c6.539,1.657,12.471,6.914,11.154,13.753   c-0.406,2.1,0.727,4.11,2.584,4.626c-1.878-0.434-3.83,0.796-4.475,2.835c-2.1,6.643-9.813,8.444-16.357,6.787   c-7.72-1.956-12.41-9.827-10.454-17.547C46.22,11.181,54.093,6.49,61.812,8.446z M39.33,18.548   c-0.465-0.118-0.748-0.593-0.63-1.058c0.098-0.387,0.444-0.657,0.841-0.657c0.072,0,0.145,0.009,0.215,0.027   c0.464,0.118,0.747,0.591,0.63,1.055c0,0.001,0,0.001,0,0.002s0,0,0,0.001C40.27,18.376,39.789,18.664,39.33,18.548z    M21.624,28.989l8.105-3.562c0.383-0.168,0.787-0.253,1.2-0.253c0.718,0,1.393,0.26,1.921,0.703l-2.754,0.685   c-1.072,0.266-1.725,1.351-1.458,2.423c0.226,0.91,1.042,1.518,1.939,1.518c0.16,0,0.322-0.02,0.484-0.06l2.314-0.575   c-0.304,0.437-0.719,0.803-1.24,1.033l-8.107,3.562c-0.193,0.085-0.392,0.148-0.593,0.19l1.304-1.806   c0.647-0.895,0.445-2.146-0.45-2.792c-0.895-0.647-2.146-0.446-2.792,0.45l-1.514,2.096C19.543,31.172,20.222,29.605,21.624,28.989   z M10.14,55.747c-0.498-0.625-0.722-1.406-0.632-2.2l0.996-8.796c0.157-1.388,1.246-2.452,2.597-2.62l-0.911,1.262   c-0.647,0.895-0.445,2.146,0.45,2.792c0.354,0.256,0.764,0.379,1.169,0.379c0.62,0,1.232-0.288,1.623-0.829l0.948-1.312   c0.074,0.325,0.104,0.661,0.066,1.001l-0.996,8.797c-0.021,0.191-0.064,0.376-0.119,0.554l-0.442-1.44   c-0.324-1.056-1.44-1.646-2.499-1.325c-1.056,0.324-1.649,1.443-1.325,2.499l0.696,2.267C11.123,56.616,10.555,56.269,10.14,55.747   z M20.595,79.352l-5.041-7.279c-0.455-0.656-0.626-1.45-0.483-2.236c0.066-0.363,0.202-0.702,0.388-1.009l0.465,1.514   c0.264,0.86,1.056,1.414,1.912,1.414c0.194,0,0.392-0.029,0.587-0.089c1.056-0.324,1.649-1.443,1.325-2.499l-0.456-1.485   c0.465,0.221,0.877,0.551,1.178,0.986l5.041,7.281c0.117,0.169,0.213,0.348,0.292,0.531l-1.549-1.068   c-0.909-0.629-2.156-0.399-2.782,0.511c-0.627,0.909-0.399,2.154,0.51,2.782l2.359,1.628C23.059,80.93,21.409,80.526,20.595,79.352   z M48.685,87.972l-8.337,2.977c-1.534,0.545-3.284-0.301-3.822-1.81c-0.057-0.158-0.092-0.32-0.121-0.482l1.435,0.99   C38.186,89.886,38.582,90,38.973,90c0.635,0,1.26-0.302,1.648-0.864c0.627-0.909,0.399-2.154-0.51-2.782l-1.595-1.101l8.157-2.914   c0.326-0.116,0.665-0.175,1.005-0.175c0.298,0,0.587,0.048,0.863,0.132l-1.674,1.218c-0.893,0.65-1.09,1.901-0.44,2.794   c0.392,0.538,1.001,0.823,1.619,0.823c0.408,0,0.82-0.124,1.175-0.383l1.377-1.002C50.396,86.738,49.706,87.606,48.685,87.972z    M52.983,72.279c-0.082,0.107-0.265,0.294-0.575,0.337c-0.479,0.073-0.916-0.273-0.98-0.742c-0.044-0.311,0.086-0.537,0.167-0.645   c0.082-0.107,0.264-0.293,0.576-0.337c0.041-0.005,0.082-0.008,0.123-0.008c0.428,0,0.794,0.321,0.855,0.752c0,0,0,0,0,0.001   c0,0.002,0.001,0.004,0.001,0.006C53.191,71.949,53.063,72.173,52.983,72.279z M73.399,83.415   c-7.889,1.094-15.194-4.438-16.287-12.326c-0.529-3.822,0.461-7.621,2.79-10.697c2.328-3.076,5.715-5.062,9.536-5.59   c8.838-1.227,14.484,3.377,15.511,8.553c0.416,2.085,2.211,3.516,4.122,3.311c-1.894,0.312-3.238,2.181-3.069,4.309   C86.556,77.919,80.081,82.49,73.399,83.415z"/>
</g>
<text x="0.0" y="117.5" font-size="5.0" font-weight="bold" font-family="Helvetica Neue, Helvetica, Arial-Unicode, Arial, Sans-serif" fill="#000000">Created by Beno&#238;t Champy</text><text x="0.0" y="122.5" font-size="5.0" font-weight="bold" font-family="Helvetica Neue, Helvetica, Arial-Unicode, Arial, Sans-serif" fill="#000000">from the Noun Project</text></svg>