<svg xmlns="http://www.w3.org/2000/svg" xmlns:xlink="http://www.w3.org/1999/xlink" version="1.1" x="0px" y="0px" width="100px" height="100px" viewBox="5.0 -10.0 100.0 135.0" enable-background="new 0 0 100 100" xml:space="preserve">
<g id="Captions" display="none">
	<rect x="-192" display="inline" width="185" height="99"/>
	<rect y="-36" display="inline" width="100" height="30"/>
	<text transform="matrix(1 0 0 1 66 -19.5)" display="inline" fill="#000000" font-family="'Helvetica'" font-size="2.4">http://thenounproject.com</text>
	<text transform="matrix(1 0 0 1 7.166 -24.5)" display="inline"><tspan x="0" y="0" fill="#000000" font-family="'Helvetica-Bold'" font-size="6.1578">The Noun Project</tspan><tspan x="1.12" y="4.8" fill="#000000" font-family="'Helvetica-Bold'" font-size="4">Icon Template</tspan></text>
	
		<text transform="matrix(1 0 0 1 -178.5 10.5)" display="inline" fill="#000000" font-family="'Helvetica-Bold'" font-size="6.1578">Reminders</text>
	<line display="inline" fill="#000000" stroke="#FFFFFF" stroke-miterlimit="10" x1="8" y1="-14.5" x2="18" y2="-14.5"/>
	<line display="inline" fill="#000000" stroke="#FFFFFF" stroke-miterlimit="10" x1="-179" y1="16.5" x2="-162" y2="16.5"/>
	<g display="inline">
		<g>
			<g>
				<rect x="-170.802" y="31.318" fill="#000000" width="8.721" height="8.642"/>
				<path fill="#000000" d="M-164.455,42.312h4.747v-4.703h-4.747V42.312z M-159.266,42.749h-5.63V37.17h5.63V42.749      L-159.266,42.749z M-166.221,44.062h8.279v-8.203h-8.279V44.062L-166.221,44.062z M-157.5,44.5h-9.163v-9.079h9.163V44.5      L-157.5,44.5z"/>
				<polygon fill="#000000" points="-166.149,44.133 -166.292,43.991 -158.013,35.787 -157.871,35.929     "/>
			</g>
		</g>
	</g>
	<rect x="-179" y="58" display="inline" fill="none" width="35" height="32.5"/>
	<text transform="matrix(1 0 0 1 -179 60.1572)" display="inline"><tspan x="0" y="0" fill="#000000" font-family="'Helvetica-Bold'" font-size="3">Strokes</tspan><tspan x="0" y="5" fill="#000000" font-family="'Helvetica'" font-size="2.4">Try to keep strokes at 4px</tspan><tspan x="0" y="10" fill="#000000" font-family="'Helvetica'" font-size="2.4">Minimum stroke weight is 2px</tspan><tspan x="0" y="14.5" fill="#000000" font-family="'Helvetica'" font-size="2.4">For thicker strokes use even </tspan><tspan x="0" y="17.5" fill="#000000" font-family="'Helvetica'" font-size="2.4">numbers: 6px, 8px etc.</tspan><tspan x="0" y="22" fill="#000000" font-family="'Helvetica-Bold'" font-size="2.4">Remember to expand strokes </tspan><tspan x="0" y="25" fill="#000000" font-family="'Helvetica-Bold'" font-size="2.4">before saving as an SVG </tspan></text>
	<rect x="-136.5" y="58" display="inline" fill="none" width="35" height="32.5"/>
	<text transform="matrix(1 0 0 1 -136.5 60.1572)" display="inline"><tspan x="0" y="0" fill="#000000" font-family="'Helvetica-Bold'" font-size="3">Size</tspan><tspan x="0" y="5" fill="#000000" font-family="'Helvetica'" font-size="2.4">Cannot be wider or taller than </tspan><tspan x="0" y="8.5" fill="#000000" font-family="'Helvetica'" font-size="2.4">100px (artboard size)</tspan><tspan x="0" y="13.5" fill="#000000" font-family="'Helvetica'" font-size="2.4">Scale your icon to fill as much of </tspan><tspan x="0" y="16.5" fill="#000000" font-family="'Helvetica'" font-size="2.4">the artboard as possible</tspan></text>
	<rect x="-94" y="58" display="inline" fill="none" width="35" height="32.5"/>
	<text transform="matrix(1 0 0 1 -94 60.1572)" display="inline"><tspan x="0" y="0" fill="#000000" font-family="'Helvetica-Bold'" font-size="3">Ungroup</tspan><tspan x="0" y="5" fill="#000000" font-family="'Helvetica'" font-size="2.4">If your design has more than one </tspan><tspan x="0" y="8" fill="#000000" font-family="'Helvetica'" font-size="2.4">shape, make sure to ungroup</tspan></text>
	<rect x="-50" y="58" display="inline" fill="none" width="35" height="32.5"/>
	<text transform="matrix(1 0 0 1 -50 60.1572)" display="inline"><tspan x="0" y="0" fill="#000000" font-family="'Helvetica-Bold'" font-size="3">Save as</tspan><tspan x="0" y="5" fill="#000000" font-family="'Helvetica'" font-size="2.4">Save as .SVG and make sure </tspan><tspan x="0" y="8" fill="#000000" font-family="'Helvetica'" font-size="2.4">&#8220;Use Artboards&#8221; is checked</tspan></text>
	
		<text transform="matrix(1.0074 0 0 1 -125.542 30.5933)" display="inline" fill="#000000" font-family="'Helvetica'" font-size="2.5731">100px</text>
	
		<text transform="matrix(1.0074 0 0 1 -41 39)" display="inline" fill="#000000" font-family="'Helvetica-Bold'" font-size="5.1462">.SVG</text>
	<rect x="-126.514" y="34.815" display="inline" fill="#000000" width="10.261" height="10.185"/>
	<rect x="-126.477" y="31.766" display="inline" fill="#000000" width="0.522" height="2.337"/>
	<rect x="-116.812" y="31.766" display="inline" fill="#000000" width="0.523" height="2.337"/>
	<rect x="-127" y="32.337" display="inline" fill="#000000" width="11.233" height="0.572"/>
	<g display="inline">
		<rect x="-83.805" y="33.844" fill="#000000" width="10.305" height="10.156"/>
		<rect x="-76.809" y="28.707" fill="#000000" width="3.308" height="3.261"/>
	</g>
	<rect x="-178.5" y="22.5" display="inline" fill="#000000" stroke="#FFFFFF" stroke-miterlimit="10" width="30" height="30"/>
	<rect x="-136.5" y="22.5" display="inline" fill="#000000" stroke="#FFFFFF" stroke-miterlimit="10" width="30" height="30"/>
	<rect x="-93.5" y="22.5" display="inline" fill="#000000" stroke="#FFFFFF" stroke-miterlimit="10" width="30" height="30"/>
	<rect x="-49.5" y="22.5" display="inline" fill="#000000" stroke="#FFFFFF" stroke-miterlimit="10" width="30" height="30"/>
</g>
<g id="Your_Icon">
	<path d="M89.072,69.061c-0.684,0-1.285,0.24-1.83,0.564L75.795,50.346L87.242,31.07c0.545,0.324,1.146,0.563,1.83,0.563   c2.004,0,3.637-1.631,3.637-3.643c0-2.008-1.633-3.637-3.637-3.637c-2.01,0-3.639,1.629-3.639,3.637c0,0.019,0.01,0.031,0.01,0.048   l-22.369,0.276L52.109,8.765c1.103-0.625,1.881-1.766,1.881-3.127C53.99,3.63,52.362,2,50.353,2c-2.005,0-3.638,1.63-3.638,3.638   c0,1.361,0.783,2.501,1.885,3.127l-10.965,19.55l-22.37-0.276c0-0.017,0.009-0.029,0.009-0.048c0-2.008-1.633-3.637-3.637-3.637   C9.628,24.354,8,25.983,8,27.991c0,2.012,1.628,3.643,3.638,3.643c0.678,0,1.279-0.239,1.829-0.563l11.447,19.276L13.466,69.625   c-0.549-0.324-1.15-0.564-1.829-0.564C9.628,69.061,8,70.691,8,72.699c0,2.012,1.628,3.643,3.638,3.643   c2.004,0,3.637-1.631,3.637-3.643c0-0.016-0.009-0.029-0.009-0.043l22.37-0.277L48.601,91.93c-1.103,0.625-1.885,1.764-1.885,3.125   c0,2.01,1.632,3.641,3.638,3.641c2.009,0,3.637-1.631,3.637-3.641c0-1.361-0.778-2.5-1.881-3.125l10.965-19.551l22.369,0.277   c0,0.014-0.01,0.027-0.01,0.043c0,2.012,1.629,3.643,3.639,3.643c2.004,0,3.637-1.631,3.637-3.643   C92.709,70.691,91.076,69.061,89.072,69.061z"/>
</g>
<text x="0.0" y="117.5" font-size="5.0" font-weight="bold" font-family="Helvetica Neue, Helvetica, Arial-Unicode, Arial, Sans-serif" fill="#000000">Created by Nicolas Ramallo</text><text x="0.0" y="122.5" font-size="5.0" font-weight="bold" font-family="Helvetica Neue, Helvetica, Arial-Unicode, Arial, Sans-serif" fill="#000000">from the Noun Project</text></svg>