<?xml version="1.0" encoding="utf-8"?>
<!-- Generator: Adobe Illustrator 18.1.0, SVG Export Plug-In . SVG Version: 6.00 Build 0)  -->
<!DOCTYPE svg PUBLIC "-//W3C//DTD SVG 1.1//EN" "http://www.w3.org/Graphics/SVG/1.1/DTD/svg11.dtd">
<svg version="1.1" id="Layer_1" xmlns="http://www.w3.org/2000/svg" xmlns:xlink="http://www.w3.org/1999/xlink" x="0px" y="0px"
	 viewBox="0 0 375.9 400" enable-background="new 0 0 375.9 400" xml:space="preserve">
<g id="Your_Icon">
	<path fill="#87714F" d="M336.7,271.6c-2.6,0-4.9,0.9-7,2.2l-44.1-74.2l44.1-74.2c2.1,1.2,4.4,2.2,7,2.2c7.7,0,14-6.3,14-14
		c0-7.7-6.3-14-14-14c-7.7,0-14,6.3-14,14c0,0.1,0,0.1,0,0.2l-86.1,1.1l-42.2-75.3c4.2-2.4,7.2-6.8,7.2-12c0-7.7-6.3-14-14-14
		c-7.7,0-14,6.3-14,14c0,5.2,3,9.6,7.3,12l-42.2,75.3l-86.1-1.1c0-0.1,0-0.1,0-0.2c0-7.7-6.3-14-14-14c-7.7,0-14,6.3-14,14
		c0,7.7,6.3,14,14,14c2.6,0,4.9-0.9,7-2.2l44.1,74.2l-44.1,74.2c-2.1-1.2-4.4-2.2-7-2.2c-7.7,0-14,6.3-14,14c0,7.7,6.3,14,14,14
		c7.7,0,14-6.3,14-14c0-0.1,0-0.1,0-0.2l86.1-1.1l42.2,75.3c-4.2,2.4-7.3,6.8-7.3,12c0,7.7,6.3,14,14,14c7.7,0,14-6.3,14-14
		c0-5.2-3-9.6-7.2-12l42.2-75.3l86.1,1.1c0,0.1,0,0.1,0,0.2c0,7.7,6.3,14,14,14c7.7,0,14-6.3,14-14
		C350.7,277.9,344.4,271.6,336.7,271.6z"/>
</g>
</svg>
